<svg width="720" height="520" viewBox="0 0 720 520" fill="none" xmlns="http://www.w3.org/2000/svg">
  <rect width="720" height="520" rx="34" fill="#FFF8F1"/>
  <circle cx="618" cy="92" r="54" fill="#F0B44C" fill-opacity="0.35"/>
  <circle cx="108" cy="99" r="46" fill="#D8EFE7"/>
  <rect x="95" y="109" width="530" height="315" rx="26" fill="white"/>
  <rect x="95" y="109" width="530" height="70" rx="26" fill="#1D2C28"/>
  <circle cx="169" cy="144" r="11" fill="#FFF8F1"/>
  <circle cx="217" cy="144" r="11" fill="#FFF8F1"/>
  <circle cx="265" cy="144" r="11" fill="#FFF8F1"/>
  <rect x="136" y="213" width="121" height="138" rx="18" fill="#F8E6D1"/>
  <rect x="278" y="213" width="147" height="27" rx="13.5" fill="#E6F4EF"/>
  <rect x="278" y="258" width="287" height="18" rx="9" fill="#F6EEE5"/>
  <rect x="278" y="291" width="257" height="18" rx="9" fill="#F6EEE5"/>
  <rect x="278" y="324" width="221" height="18" rx="9" fill="#F6EEE5"/>
  <path d="M162 320L189 279L219 301L244 253" stroke="#D66B3D" stroke-width="12" stroke-linecap="round" stroke-linejoin="round"/>
  <circle cx="162" cy="320" r="12" fill="#1D2C28"/>
  <circle cx="189" cy="279" r="12" fill="#1D2C28"/>
  <circle cx="219" cy="301" r="12" fill="#1D2C28"/>
  <circle cx="244" cy="253" r="12" fill="#1D2C28"/>
  <rect x="154" y="442" width="178" height="22" rx="11" fill="#E6F4EF"/>
  <rect x="354" y="442" width="212" height="22" rx="11" fill="#F8E6D1"/>
</svg>
